<?xml version="1.0" encoding="utf-8"?>
<svg width="52" height="52" viewBox="0 0 52 52" fill="none" xmlns="http://www.w3.org/2000/svg">
  <g fill="#FFCD74" fill-rule="evenodd">
    <path d="M0 26C0 11.6406 11.6406 0 26 0C40.3594 0 52 11.6406 52 26C52 40.3594 40.3594 52 26 52C11.6406 52 0 40.3594 0 26Z" />
    <path d="M26 0C11.6406 0 0 11.6406 0 26C0 40.3594 11.6406 52 26 52C40.3594 52 52 40.3594 52 26C52 11.6406 40.3594 0 26 0ZM14.6863 37.3137Q10 32.6274 10 26Q10 19.3726 14.6863 14.6863Q19.3726 10 26 10Q32.6274 10 37.3137 14.6863Q42 19.3726 42 26Q42 32.6274 37.3137 37.3137Q32.6274 42 26 42Q19.3726 42 14.6863 37.3137Z" fill="#FFFFFF" fill-rule="evenodd" />
  </g>
</svg>