<?xml version="1.0" encoding="utf-8"?>
<svg width="191" height="150" viewBox="0 0 191 150" fill="none" xmlns="http://www.w3.org/2000/svg">
  <g>
    <g>
      <path d="M73.6 46C73.6 46 92 46 92 46C92 71.4051 71.4051 92 46 92C20.5949 92 0 71.4051 0 46C0 20.5949 20.5949 0 46 0C71.4051 0 92 20.5949 92 46C92 46 73.6 46 73.6 46C73.6 30.7569 61.2431 18.4 46 18.4C30.7569 18.4 18.4 30.7569 18.4 46C18.4 61.2431 30.7569 73.6 46 73.6C61.2431 73.6 73.6 61.2431 73.6 46Z" fill="#91A2FF" fill-rule="evenodd" transform="translate(99 0)" />
      <path d="M21.809 32.7126C21.809 32.7126 5.68164 23.8543 5.68164 23.8543C2.3047 30.0024 0.378507 36.8413 0.0503616 43.8481C-0.277784 50.8548 1.00082 57.8438 3.78837 64.2806C6.57594 70.7173 10.7986 76.4313 16.1335 80.9856C21.4684 85.5399 27.7742 88.8138 34.5685 90.5569C41.3629 92.3001 48.466 92.4663 55.3345 91.043C62.203 89.6196 68.655 86.6442 74.1971 82.3445C79.7392 78.0448 84.2246 72.5346 87.3102 66.2353C90.3958 59.936 92 53.0144 92 46C92 46 73.6 46 73.6 46C73.6 50.2087 72.6375 54.3616 70.7861 58.1412C68.9347 61.9207 66.2435 65.2269 62.9183 67.8067C59.593 70.3865 55.7218 72.1717 51.6007 73.0258C47.4796 73.8798 43.2178 73.7801 39.1411 72.7342C35.0645 71.6883 31.281 69.7239 28.0801 66.9914C24.8792 64.2588 22.3456 60.8304 20.673 56.9683C19.0005 53.1063 18.2333 48.9129 18.4302 44.7088C18.6271 40.5048 19.7828 36.4014 21.809 32.7126Z" fill="#91A2FF" fill-rule="evenodd" transform="translate(0 58)" />
      <path d="M73.6 46C73.6 46 92 46 92 46C92 71.4051 71.4051 92 46 92C20.5949 92 0 71.4051 0 46C0 20.5949 20.5949 0 46 0C71.4051 0 92 20.5949 92 46C92 46 73.6 46 73.6 46C73.6 30.7569 61.2431 18.4 46 18.4C30.7569 18.4 18.4 30.7569 18.4 46C18.4 61.2431 30.7569 73.6 46 73.6C61.2431 73.6 73.6 61.2431 73.6 46Z" fill="#91A2FF" fill-rule="evenodd" />
    </g>
  </g>
</svg>